<svg width="64" height="64" viewBox="0 0 64 64" fill="none" xmlns="http://www.w3.org/2000/svg">
<path d="M53.3333 16H8" stroke="#3A2121" stroke-width="5" stroke-linecap="round"/>
<path d="M26.6667 49.6667H8" stroke="#3A2121" stroke-width="5" stroke-linecap="round"/>
<path d="M24 32H8" stroke="#3A2121" stroke-width="5" stroke-linecap="round"/>
<path d="M45 32.9534L43.5709 34.3526C43.9472 34.7368 44.4621 34.9534 45 34.9534C45.5379 34.9534 46.0528 34.7368 46.4291 34.3526L45 32.9534ZM43.4933 47.8822C41.7771 46.6174 39.58 44.8216 37.8315 42.8248C36.0208 40.7568 35 38.8206 35 37.243H31C31 40.339 32.8637 43.2232 34.8219 45.4598C36.8424 47.7672 39.2984 49.7595 41.1203 51.1022L43.4933 47.8822ZM35 37.243C35 34.2888 36.3187 32.7334 37.6755 32.2261C39.0547 31.7104 41.2536 31.9857 43.5709 34.3526L46.4291 31.554C43.3467 28.4059 39.5456 27.2564 36.2747 28.4795C32.9813 29.7109 31 33.0576 31 37.243H35ZM48.8797 51.1022C50.7016 49.7595 53.1576 47.7672 55.1781 45.4598C57.1363 43.2232 59 40.339 59 37.243H55C55 38.8206 53.9792 40.7571 52.1685 42.8248C50.42 44.8216 48.2229 46.6174 46.5067 47.8822L48.8797 51.1022ZM59 37.243C59 33.0576 57.0187 29.7109 53.7253 28.4795C50.4544 27.2564 46.6533 28.4059 43.5709 31.554L46.4291 34.3526C48.7464 31.9857 50.9453 31.7104 52.3245 32.2261C53.6813 32.7334 55 34.2888 55 37.243H59ZM41.1203 51.1022C42.1648 51.872 43.3339 52.831 45 52.831V48.831C44.9605 48.831 44.9152 48.8371 44.7307 48.7374C44.4688 48.5955 44.1413 48.3598 43.4933 47.8822L41.1203 51.1022ZM46.5067 47.8822C45.8587 48.3598 45.5312 48.5955 45.2693 48.7374C45.0848 48.8371 45.0395 48.831 45 48.831V52.831C46.6661 52.831 47.8352 51.872 48.8797 51.1022L46.5067 47.8822Z" fill="#3A2121"/>
</svg>
