<svg width="64" height="64" viewBox="0 0 64 64" fill="none" xmlns="http://www.w3.org/2000/svg">
<path d="M32 40C36.4183 40 40 36.4183 40 32C40 27.5817 36.4183 24 32 24C27.5817 24 24 27.5817 24 32C24 36.4183 27.5817 40 32 40Z" stroke="#3A2121" stroke-width="4"/>
<path d="M36.7078 5.73929C35.7275 5.33331 34.4851 5.33331 32.0001 5.33331C29.515 5.33331 28.2726 5.33331 27.2923 5.73929C25.9856 6.28059 24.9473 7.31886 24.406 8.62566C24.1589 9.22222 24.0622 9.91598 24.0244 10.928C23.9688 12.4151 23.2061 13.7917 21.9172 14.5358C20.6284 15.2799 19.055 15.2521 17.7392 14.5567C16.8439 14.0834 16.1948 13.8203 15.5546 13.736C14.1522 13.5514 12.7339 13.9314 11.6117 14.7925C10.77 15.4383 10.1488 16.5144 8.90629 18.6665C7.66378 20.8186 7.04253 21.8946 6.90405 22.9464C6.71943 24.3488 7.09946 25.7671 7.96055 26.8893C8.35357 27.4016 8.90594 27.832 9.76325 28.3706C11.0235 29.1626 11.8344 30.5117 11.8344 32C11.8343 33.4882 11.0234 34.837 9.76322 35.6288C8.90581 36.1677 8.35335 36.5984 7.96029 37.1106C7.09919 38.2328 6.71917 39.6509 6.90381 41.0533C7.04226 42.105 7.66351 43.1813 8.90602 45.3333C10.1486 47.4853 10.7698 48.5616 11.6114 49.2072C12.7336 50.0682 14.1519 50.4482 15.5543 50.2637C16.1944 50.1794 16.8436 49.9162 17.7388 49.4432C19.0547 48.7477 20.6282 48.72 21.9171 49.464C23.206 50.2082 23.9688 51.5848 24.0244 53.0722C24.0622 54.084 24.1589 54.7778 24.406 55.3744C24.9473 56.681 25.9856 57.7194 27.2923 58.2608C28.2726 58.6666 29.515 58.6666 32.0001 58.6666C34.4851 58.6666 35.7275 58.6666 36.7078 58.2608C38.0145 57.7194 39.0529 56.681 39.5939 55.3744C39.8411 54.7778 39.9379 54.084 39.9758 53.072C40.0313 51.5848 40.7939 50.2082 42.0827 49.464C43.3715 48.7197 44.9451 48.7477 46.2611 49.4432C47.1563 49.9162 47.8054 50.1792 48.4454 50.2634C49.8478 50.4482 51.2662 50.0682 52.3883 49.2072C53.2299 48.5613 53.8513 47.4853 55.0937 45.333C56.3363 43.181 56.9577 42.105 57.0961 41.0533C57.2806 39.6509 56.9006 38.2325 56.0395 37.1104C55.6465 36.5981 55.0939 36.1674 54.2366 35.6288C52.9766 34.837 52.1657 33.488 52.1657 31.9997C52.1657 30.5114 52.9766 29.1629 54.2366 28.3712C55.0942 27.8322 55.6467 27.4018 56.0398 26.8893C56.9009 25.7673 57.2809 24.349 57.0963 22.9466C56.9579 21.8948 56.3366 20.8187 55.0939 18.6666C53.8515 16.5146 53.2302 15.4385 52.3886 14.7927C51.2665 13.9316 49.8481 13.5516 48.4457 13.7362C47.8057 13.8205 47.1566 14.0836 46.2611 14.5568C44.9454 15.2522 43.3718 15.28 42.083 14.5359C40.7939 13.7917 40.0313 12.4151 39.9758 10.9278C39.9379 9.91593 39.8411 9.22219 39.5939 8.62566C39.0529 7.31886 38.0145 6.28059 36.7078 5.73929Z" stroke="#3A2121" stroke-width="5"/>
</svg>
