<svg width="64" height="64" viewBox="0 0 64 64" fill="none" xmlns="http://www.w3.org/2000/svg">
<path d="M5.33325 32.5437C5.33325 26.4413 5.33325 23.3901 6.71779 20.8606C8.10232 18.3312 10.6318 16.7614 15.6907 13.6217L21.024 10.3117C26.3716 6.99278 29.0455 5.33334 31.9999 5.33334C34.9543 5.33334 37.6282 6.99278 42.9759 10.3117L48.3092 13.6217C53.3682 16.7614 55.8975 18.3312 57.2821 20.8606C58.6666 23.3901 58.6666 26.4413 58.6666 32.5437V36.6C58.6666 47.0021 58.6666 52.2035 55.5423 55.4349C52.4183 58.6667 47.3898 58.6667 37.3333 58.6667H26.6666C16.6099 58.6667 11.5817 58.6667 8.45744 55.4349C5.33325 52.2035 5.33325 47.0021 5.33325 36.6V32.5437Z" stroke="#3A2121" stroke-width="5"/>
<path d="M40 48H24" stroke="#3A2121" stroke-width="4" stroke-linecap="round"/>
</svg>
