<svg   viewBox="0 0 64 64" fill="none" xmlns="http://www.w3.org/2000/svg">
<path fill-rule="evenodd" clip-rule="evenodd" d="M6.71779 20.8606C5.33325 23.3901 5.33325 26.4413 5.33325 32.5437V36.6C5.33325 47.0021 5.33325 52.2034 8.45744 55.4349C11.5817 58.6666 16.6099 58.6666 26.6666 58.6666H37.3333C47.3898 58.6666 52.4183 58.6666 55.5423 55.4349C58.6666 52.2034 58.6666 47.0021 58.6666 36.6V32.5437C58.6666 26.4413 58.6666 23.3901 57.2821 20.8606C55.8975 18.3312 53.3682 16.7613 48.3092 13.6216L42.9759 10.3116C37.6282 6.99275 34.9543 5.33331 31.9999 5.33331C29.0455 5.33331 26.3716 6.99275 21.024 10.3116L15.6907 13.6217C10.6318 16.7613 8.10232 18.3312 6.71779 20.8606ZM23.9999 46C22.8954 46 21.9999 46.8954 21.9999 48C21.9999 49.1045 22.8954 50 23.9999 50H39.9999C41.1045 50 41.9999 49.1045 41.9999 48C41.9999 46.8954 41.1045 46 39.9999 46H23.9999Z" fill="#3A2121"/>
</svg>
