<svg width="64" height="64" viewBox="0 0 64 64" fill="none" xmlns="http://www.w3.org/2000/svg">
<path fill-rule="evenodd" clip-rule="evenodd" d="M28.1298 57.4072L28.7967 56.2808C29.8655 54.4752 30.3997 53.5725 31.2509 53.069C32.1021 52.5653 33.2125 52.5298 35.433 52.4589C37.5151 52.3922 38.9146 52.2106 40.1111 51.7149C42.6303 50.6714 44.6317 48.6701 45.6751 46.1509C46.4578 44.2616 46.4578 41.8664 46.4578 37.076V35.0197C46.4578 28.2888 46.4578 24.9232 44.9428 22.4509C44.0951 21.0675 42.9319 19.9044 41.5485 19.0567C39.0762 17.5417 35.7109 17.5416 28.9799 17.5416H22.8112C16.0803 17.5416 12.7148 17.5417 10.2425 19.0567C8.85912 19.9044 7.69603 21.0675 6.84827 22.4509C5.33325 24.9232 5.33325 28.2888 5.33325 35.0197V37.076C5.33325 41.8664 5.33325 44.2616 6.11587 46.1509C7.15933 48.6701 9.1608 50.6714 11.68 51.7149C12.8765 52.2106 14.2759 52.3922 16.358 52.4589C18.5785 52.5298 19.6888 52.5653 20.54 53.069C21.3912 53.5725 21.9255 54.4752 22.9942 56.2808L23.661 57.4072C24.6545 59.0858 27.1365 59.0858 28.1298 57.4072ZM34.8914 38.104C36.3111 38.104 37.4618 36.953 37.4618 35.5336C37.4618 34.1141 36.3111 32.9634 34.8914 32.9634C33.4719 32.9634 32.3212 34.1141 32.3212 35.5336C32.3212 36.953 33.4719 38.104 34.8914 38.104ZM28.4658 35.5336C28.4658 36.953 27.3151 38.104 25.8955 38.104C24.476 38.104 23.3252 36.953 23.3252 35.5336C23.3252 34.1141 24.476 32.9634 25.8955 32.9634C27.3151 32.9634 28.4658 34.1141 28.4658 35.5336ZM16.8995 38.104C18.319 38.104 19.4698 36.953 19.4698 35.5336C19.4698 34.1141 18.319 32.9634 16.8995 32.9634C15.48 32.9634 14.3292 34.1141 14.3292 35.5336C14.3292 36.953 15.48 38.104 16.8995 38.104Z" fill="#3A2121"/>
<path d="M40.4523 5.33331C43.5237 5.33329 45.9659 5.33329 47.9245 5.5195C49.9331 5.71046 51.6312 6.11075 53.1437 7.03771C54.7 7.99145 56.0085 9.29993 56.9621 10.8562C57.8893 12.3689 58.2896 14.067 58.4805 16.0754C58.6667 18.0341 58.6667 20.4765 58.6667 23.5477V25.6453C58.6667 27.8312 58.6667 29.5696 58.5704 30.9794C58.472 32.4216 58.2667 33.6602 57.7861 34.82C56.6123 37.6538 54.3608 39.9056 51.5267 41.0794C51.4557 41.1088 51.3845 41.1373 51.3128 41.1645C50.9707 41.2954 50.6779 41.4074 50.4205 41.4909C50.4579 40.2408 50.4579 38.8168 50.4579 37.2098V34.8304C50.4579 31.6261 50.4579 28.9418 50.2504 26.7597C50.0333 24.4751 49.5608 22.3312 48.3533 20.3609C47.1757 18.4393 45.5603 16.8237 43.6387 15.6461C41.6683 14.4387 39.5245 13.9662 37.2397 13.749C35.0576 13.5415 32.3733 13.5416 29.1691 13.5416H22.622C20.4458 13.5416 18.5095 13.5416 16.8074 13.6065C16.8867 13.3317 16.9953 13.0167 17.1228 12.647C17.3397 12.0182 17.6139 11.4235 17.9615 10.8562C18.9152 9.29993 20.2236 7.99145 21.78 7.03771C23.2926 6.11075 24.9907 5.71046 26.9992 5.5195C28.9579 5.33329 31.4 5.33329 34.4715 5.33331H40.4523Z" fill="#3A2121"/>
</svg>
