<svg width="64" height="64" viewBox="0 0 64 64" fill="none" xmlns="http://www.w3.org/2000/svg">
<path d="M30.7058 58.3792L31.3978 57.2104L27.9554 55.1731L27.2637 56.3419L30.7058 58.3792ZM21.9354 57.2104L22.6272 58.3792L26.0694 56.3419L25.3776 55.1731L21.9354 57.2104ZM27.2637 56.3419C27.1426 56.5464 26.9311 56.6667 26.6665 56.6667C26.4019 56.6667 26.1905 56.5464 26.0694 56.3419L22.6272 58.3792C24.4324 61.4291 28.9007 61.4291 30.7058 58.3792L27.2637 56.3419ZM23.4666 18H29.8666V14H23.4666V18ZM45.9999 34.1333V36.2667H49.9999V34.1333H45.9999ZM7.33325 36.2667V34.1333H3.33325V36.2667H7.33325ZM3.33325 36.2667C3.33325 38.7245 3.33216 40.6677 3.43939 42.2392C3.54784 43.8285 3.77371 45.1829 4.29744 46.4475L7.99296 44.9168C7.70475 44.2208 7.52467 43.3528 7.43011 41.9669C7.33435 40.5632 7.33325 38.7792 7.33325 36.2667H3.33325ZM16.8353 50.2277C14.7226 50.16 13.5745 49.9763 12.6833 49.6072L11.1526 53.3027C12.7442 53.9619 14.4998 54.1549 16.7075 54.2256L16.8353 50.2277ZM4.29744 46.4475C5.58304 49.5512 8.04891 52.0171 11.1526 53.3027L12.6833 49.6072C10.5598 48.7275 8.87259 47.0403 7.99296 44.9168L4.29744 46.4475ZM45.9999 36.2667C45.9999 38.7792 45.9989 40.5632 45.9031 41.9669C45.8085 43.3528 45.6285 44.2208 45.3402 44.9168L49.0357 46.4475C49.5594 45.1829 49.7853 43.8285 49.8938 42.2392C50.001 40.6677 49.9999 38.7245 49.9999 36.2667H45.9999ZM36.6255 54.2256C38.8333 54.1549 40.589 53.9619 42.1805 53.3027L40.6498 49.6072C39.7586 49.9763 38.6106 50.16 36.4978 50.2277L36.6255 54.2256ZM45.3402 44.9168C44.4607 47.0403 42.7735 48.7275 40.6498 49.6072L42.1805 53.3027C45.2842 52.0171 47.75 49.5512 49.0357 46.4475L45.3402 44.9168ZM29.8666 18C33.397 18 35.9042 18.0021 37.8541 18.1875C39.7743 18.3701 40.9461 18.7161 41.8615 19.2771L43.9517 15.8666C42.3021 14.8557 40.4455 14.4159 38.2327 14.2055C36.0498 13.9979 33.3197 14 29.8666 14V18ZM49.9999 34.1333C49.9999 30.6805 50.0021 27.9504 49.7946 25.7672C49.5842 23.5543 49.1442 21.6979 48.1333 20.0484L44.7229 22.1384C45.2836 23.0538 45.6298 24.2258 45.8125 26.1458C45.9978 28.0957 45.9999 30.6029 45.9999 34.1333H49.9999ZM41.8615 19.2771C43.0277 19.9917 44.0082 20.9722 44.7229 22.1384L48.1333 20.0484C47.089 18.344 45.6559 16.911 43.9517 15.8666L41.8615 19.2771ZM23.4666 14C20.0137 14 17.2835 13.9979 15.1004 14.2055C12.8876 14.4159 11.0312 14.8557 9.3816 15.8666L11.4716 19.2771C12.387 18.7161 13.559 18.3701 15.479 18.1875C17.4289 18.0021 19.9362 18 23.4666 18V14ZM7.33325 34.1333C7.33325 30.6029 7.33536 28.0957 7.52075 26.1458C7.70331 24.2258 8.04939 23.0538 8.61037 22.1384L5.19981 20.0484C4.18896 21.6979 3.74912 23.5543 3.53872 25.7672C3.33115 27.9504 3.33325 30.6805 3.33325 34.1333H7.33325ZM9.3816 15.8666C7.67723 16.911 6.24424 18.344 5.19981 20.0484L8.61037 22.1384C9.32499 20.9722 10.3055 19.9917 11.4716 19.2771L9.3816 15.8666ZM25.3776 55.1731C24.8421 54.2683 24.3724 53.4709 23.9169 52.8437C23.4377 52.184 22.8886 51.5877 22.1285 51.1381L20.092 54.5811C20.215 54.6536 20.3846 54.7869 20.6806 55.1944C21.0002 55.6347 21.3621 56.2419 21.9354 57.2104L25.3776 55.1731ZM16.7075 54.2256C17.8953 54.2637 18.6546 54.2899 19.2314 54.3603C19.7767 54.4267 19.9814 54.5155 20.092 54.5811L22.1285 51.1381C21.356 50.6813 20.5431 50.4904 19.7158 50.3896C18.9199 50.2925 17.9513 50.2635 16.8353 50.2277L16.7075 54.2256ZM31.3978 57.2104C31.9709 56.2419 32.333 55.6347 32.6525 55.1944C32.9485 54.7869 33.1181 54.6536 33.241 54.5811L31.2047 51.1381C30.4445 51.5877 29.8954 52.184 29.4162 52.8437C28.9607 53.4709 28.4909 54.2683 27.9554 55.1731L31.3978 57.2104ZM36.4978 50.2277C35.3818 50.2635 34.4133 50.2925 33.6173 50.3896C32.7901 50.4904 31.977 50.6813 31.2047 51.1381L33.241 54.5811C33.3517 54.5155 33.5565 54.4267 34.1015 54.3603C34.6783 54.2899 35.4378 54.2637 36.6255 54.2256L36.4978 50.2277Z" fill="#3A2121"/>
<path d="M35.6663 7.33334H41.6663V3.33334H35.6663V7.33334ZM56.6663 22.3334V24.3334H60.6663V22.3334H56.6663ZM56.6663 24.3334C56.6663 26.6904 56.6652 28.3581 56.5759 29.6688C56.4876 30.9616 56.3202 31.7603 56.0575 32.3949L59.753 33.9256C60.2514 32.7224 60.4644 31.4376 60.5666 29.9411C60.6676 28.4627 60.6663 26.6358 60.6663 24.3334H56.6663ZM56.0575 32.3949C55.2455 34.3552 53.6882 35.9125 51.7279 36.7245L53.2586 40.42C56.1991 39.2021 58.5351 36.8659 59.753 33.9256L56.0575 32.3949ZM41.6663 7.33334C44.9786 7.33334 47.3223 7.33545 49.1428 7.50857C50.9338 7.67884 52.0111 8.00036 52.8463 8.51222L54.9364 5.10166C53.3671 4.13993 51.6052 3.72465 49.5215 3.52652C47.4676 3.33124 44.9012 3.33334 41.6663 3.33334V7.33334ZM60.6663 22.3334C60.6663 19.0987 60.6684 16.5322 60.4732 14.4783C60.2751 12.3946 59.8599 10.6328 58.898 9.06337L55.4876 11.1534C55.9994 11.9887 56.321 13.066 56.4911 14.8569C56.6644 16.6776 56.6663 19.0212 56.6663 22.3334H60.6663ZM52.8463 8.51222C53.9228 9.17188 54.8279 10.0769 55.4876 11.1534L58.898 9.06337C57.9087 7.4487 56.5511 6.09113 54.9364 5.10166L52.8463 8.51222ZM35.6663 3.33334C32.4316 3.33334 29.8652 3.33124 27.8114 3.52652C25.7276 3.72465 23.9658 4.13993 22.3964 5.10166L24.4864 8.51222C25.3217 8.00036 26.399 7.67884 28.19 7.50857C30.0106 7.33545 32.3543 7.33334 35.6663 7.33334V3.33334ZM22.3964 5.10166C20.7818 6.09113 19.4242 7.4487 18.4347 9.06337L21.8453 11.1534C22.5049 10.0769 23.41 9.17188 24.4864 8.51222L22.3964 5.10166ZM20.7524 16.1039C20.8856 13.5429 21.2187 12.1759 21.8453 11.1534L18.4347 9.06337C17.2691 10.9656 16.8998 13.1658 16.7578 15.8961L20.7524 16.1039ZM48.0663 41.2928C50.1108 41.2248 51.7583 41.0416 53.2586 40.42L51.7279 36.7245C50.9226 37.0581 49.877 37.2304 47.9335 37.2952L48.0663 41.2928Z" fill="#3A2121"/>
<path d="M17.3582 34.6667H17.3822M26.6667 34.6667H26.6907M35.9761 34.6667H36.0001" stroke="#3A2121" stroke-width="4" stroke-linecap="round" stroke-linejoin="round"/>
</svg>
