<svg width="64" height="64" viewBox="0 0 64 64" fill="none" xmlns="http://www.w3.org/2000/svg">
<path d="M5.33325 43.0496V13.3275C5.33325 10.399 7.69672 8.02008 10.6197 8.19974C13.2233 8.35976 16.3026 8.67606 18.6666 9.29987C21.4645 10.0382 24.7895 11.6107 27.4194 13.0013C28.2381 13.4342 29.1087 13.7345 29.9999 13.9039V54.3803C29.1922 54.2022 28.4039 53.9147 27.6597 53.5179C24.9944 52.0974 21.5505 50.4499 18.6666 49.6891C16.3287 49.072 13.2913 48.756 10.7062 48.5942C7.74939 48.4094 5.33325 46.0123 5.33325 43.0496Z" fill="#3A2121"/>
<path d="M34 54.3802C34.8077 54.2021 35.596 53.9146 36.3403 53.5178C39.0056 52.0973 42.4493 50.4498 45.3333 49.689C47.6712 49.072 50.7085 48.756 53.2936 48.5941C56.2507 48.4093 58.6667 46.0122 58.6667 43.0496V13.1551C58.6667 10.2953 56.4101 7.94773 53.552 8.04731C50.5424 8.15213 46.7917 8.46405 44 9.29981C41.5797 10.0244 38.7608 11.4778 36.4635 12.8073C35.6864 13.2572 34.8555 13.5876 34 13.7971V54.3802Z" fill="#3A2121"/>
</svg>
