<svg width="64" height="64" viewBox="0 0 64 64" fill="none" xmlns="http://www.w3.org/2000/svg">
<path d="M53.7239 5.79742C57.743 5.79255 60.7836 9.06128 60.9104 12.9058H60.9163V43.2994H60.9104C60.7817 47.3313 57.5464 50.4555 53.6829 50.8179L53.6838 50.8248L53.4338 50.8404C50.8807 50.9999 48.0238 51.3063 45.9075 51.8648C43.2903 52.5554 40.0385 54.0962 37.3987 55.5035L37.178 55.6216L37.175 55.6177C33.931 57.2561 30.0674 57.2564 26.8235 55.6177L26.8215 55.6216L26.6008 55.5035C23.961 54.0962 20.7091 52.5553 18.092 51.8648C16.24 51.3761 13.8214 51.08 11.5354 50.9068L10.5657 50.8404L10.3167 50.8248V50.8179C6.45319 50.4553 3.21785 47.3311 3.08911 43.2994H3.08325V13.0777H3.08911C3.219 9.13677 6.40417 5.83132 10.5071 5.94586L10.5081 5.93903L10.7581 5.95465L11.0071 5.9693L11.0061 5.97223C13.5126 6.13388 16.5342 6.44341 18.9983 7.06305L18.9993 7.0611L19.2405 7.12457L19.4827 7.18805L19.4817 7.19098C22.3983 7.99719 25.6907 9.55389 28.2493 10.897L28.2502 10.8961L28.4709 11.0123L28.8762 11.2105C30.9299 12.1288 33.3598 12.0037 35.3362 10.8599L35.553 10.7349V10.7359C37.7808 9.45689 40.5784 8.01548 43.1165 7.2193L43.1155 7.21637L43.3547 7.14508L43.594 7.07281L43.595 7.07672C46.56 6.23134 50.2977 5.9215 53.2239 5.81012V5.80817L53.7239 5.79059V5.79742ZM53.6301 10.2964C50.6496 10.4003 47.1433 10.7077 44.6448 11.4556C42.4868 12.1017 39.8543 13.4451 37.5901 14.7554L37.3743 14.8804L37.3723 14.8765C34.0532 16.7028 29.994 16.8093 26.5891 15.1031L26.5881 15.107L26.3674 14.9908C23.7657 13.615 20.6286 12.1455 18.092 11.4761C16.2186 10.9818 13.7664 10.6846 11.4592 10.5123L10.4817 10.4459L10.3381 10.441C8.90709 10.4304 7.66579 11.5804 7.58716 13.1675L7.58325 13.3277V43.0494L7.58716 43.2076C7.66859 44.7781 8.95862 46.145 10.6741 46.3336L10.8469 46.3492L11.0959 46.3648L11.095 46.3658C13.5822 46.5289 16.5622 46.8401 18.9983 47.4527L18.9993 47.4498L19.2405 47.5142L19.4827 47.5777L19.4817 47.5806C22.4891 48.4119 25.8995 50.0421 28.4963 51.4166L28.4973 51.4156L28.7014 51.524L28.718 51.5328L29.1057 51.7242C31.0664 52.6158 33.3698 52.5519 35.2815 51.5328L35.5022 51.4156V51.4166C38.099 50.042 41.5102 48.412 44.5178 47.5806L44.5168 47.5777L44.759 47.5142L45.0012 47.4498V47.4527C47.4371 46.8401 50.4164 46.529 52.9036 46.3658V46.3648L53.1536 46.3492C55.0124 46.2327 56.4163 44.7377 56.4163 43.0494V13.1558L56.4124 12.9986C56.3347 11.3951 55.0729 10.2462 53.6301 10.2964Z" fill="#3A2121" stroke="#3A2121" stroke-width="0.5"/>
<path d="M32 14.668V54.668" stroke="#3A2121" stroke-width="5"/>
</svg>
