<svg width="64" height="64" viewBox="0 0 64 64" fill="none" xmlns="http://www.w3.org/2000/svg">
<path fill-rule="evenodd" clip-rule="evenodd" d="M9.2385 9.23857C5.33325 13.1438 5.33325 19.4292 5.33325 32C5.33325 44.5706 5.33325 50.8562 9.2385 54.7613C13.1437 58.6666 19.4291 58.6666 31.9999 58.6666C44.5706 58.6666 50.8562 58.6666 54.7612 54.7613C58.6666 50.8562 58.6666 44.5706 58.6666 32C58.6666 19.4292 58.6666 13.1438 54.7612 9.23857C50.8562 5.33331 44.5706 5.33331 31.9999 5.33331C19.4291 5.33331 13.1437 5.33331 9.2385 9.23857ZM28.1149 20.046C28.8767 19.2461 28.8458 17.9801 28.0458 17.2184C27.2461 16.4566 25.9801 16.4875 25.2183 17.2873L19.0475 23.7666L17.4482 22.0873C16.6864 21.2875 15.4205 21.2566 14.6206 22.0184C13.8207 22.7801 13.7899 24.0461 14.5517 24.846L17.5993 28.0458C17.9767 28.4424 18.5002 28.6666 19.0475 28.6666C19.5949 28.6666 20.1183 28.4424 20.4958 28.0458L28.1149 20.046ZM34.6666 22C33.562 22 32.6666 22.8954 32.6666 24C32.6666 25.1046 33.562 26 34.6666 26H47.9999C49.1045 26 49.9999 25.1046 49.9999 24C49.9999 22.8954 49.1045 22 47.9999 22H34.6666ZM28.1149 38.7125C28.8767 37.9128 28.8458 36.6469 28.0458 35.885C27.2461 35.1232 25.9801 35.1541 25.2183 35.9541L19.0475 42.4333L17.4482 40.7541C16.6864 39.9541 15.4205 39.9232 14.6206 40.685C13.8207 41.4469 13.7899 42.7128 14.5517 43.5125L17.5993 46.7125C17.9767 47.109 18.5002 47.3333 19.0475 47.3333C19.5949 47.3333 20.1183 47.109 20.4958 46.7125L28.1149 38.7125ZM34.6666 40.6666C33.562 40.6666 32.6666 41.5621 32.6666 42.6666C32.6666 43.7712 33.562 44.6666 34.6666 44.6666H47.9999C49.1045 44.6666 49.9999 43.7712 49.9999 42.6666C49.9999 41.5621 49.1045 40.6666 47.9999 40.6666H34.6666Z" fill="#3A2121"/>
</svg>
