<svg width="64" height="64" viewBox="0 0 64 64" fill="none" xmlns="http://www.w3.org/2000/svg">
<path d="M5.33325 32C5.33325 19.4292 5.33325 13.1438 9.2385 9.2386C13.1437 5.33334 19.4291 5.33334 31.9999 5.33334C44.5706 5.33334 50.8562 5.33334 54.7612 9.2386C58.6666 13.1438 58.6666 19.4292 58.6666 32C58.6666 44.5707 58.6666 50.8563 54.7612 54.7613C50.8562 58.6667 44.5706 58.6667 31.9999 58.6667C19.4291 58.6667 13.1437 58.6667 9.2385 54.7613C5.33325 50.8563 5.33325 44.5707 5.33325 32Z" stroke="#3A2121" stroke-width="5"/>
<path d="M16 42.1333L19.0476 45.3333L26.6667 37.3333" stroke="#3A2121" stroke-width="4" stroke-linecap="round" stroke-linejoin="round"/>
<path d="M16 23.4667L19.0476 26.6667L26.6667 18.6667" stroke="#3A2121" stroke-width="4" stroke-linecap="round" stroke-linejoin="round"/>
<path d="M34.6667 24H48.0001" stroke="#3A2121" stroke-width="3" stroke-linecap="round"/>
<path d="M34.6667 42.6667H48.0001" stroke="#3A2121" stroke-width="3" stroke-linecap="round"/>
</svg>
